# Blender 3.4.1
# www.blender.org
mtllib Escudoobj.mtl
o Cilindro
v 0.000000 -1.000000 -1.000000
v 0.000000 1.000000 -1.000000
v 0.866025 -1.000000 -0.500000
v 0.866025 1.000000 -0.500000
v 0.000000 -1.000000 1.000000
v 0.000000 1.000000 1.000000
v -0.866025 -1.000000 0.500000
v -0.866025 1.000000 0.500000
v -0.866025 -1.000000 -0.500000
v -0.866025 1.000000 -0.500000
v 0.000000 -1.000000 -0.640000
v 0.000000 1.000000 -0.640000
v 0.686025 -1.000000 -0.188231
v 0.686025 1.000000 -0.188231
v 0.180000 -1.000000 0.688231
v 0.180000 1.000000 0.688231
v -0.554256 -1.000000 0.320000
v -0.554256 1.000000 0.320000
v -0.554256 -1.000000 -0.320000
v -0.554256 1.000000 -0.320000
vn 0.5000 -0.0000 -0.8660
vn -0.5000 -0.0000 0.8660
vn -1.0000 -0.0000 -0.0000
vn -0.5000 -0.0000 -0.8660
vn -0.5500 -0.0000 0.8352
vn 0.4483 -0.0000 -0.8939
vn 1.0000 -0.0000 -0.0000
vn 0.5000 -0.0000 0.8660
vn -0.0000 -1.0000 -0.0000
vn -0.0000 1.0000 -0.0000
vn 0.8660 -0.0000 0.5000
vt 1.000000 0.500000
vt -0.000000 0.500000
vt 1.000000 1.000000
vt -0.000000 1.000000
vt 0.833333 0.500000
vt 0.833333 1.000000
vt 0.500000 0.500000
vt 0.500000 1.000000
vt 0.333333 0.500000
vt 0.333333 1.000000
vt 0.166667 0.500000
vt 0.166667 1.000000
vt 1.000000 0.500000
vt -0.000000 0.500000
vt 1.000000 1.000000
vt -0.000000 1.000000
vt 0.833333 0.500000
vt 0.833333 1.000000
vt 0.500000 0.500000
vt 0.500000 1.000000
vt 0.333333 0.500000
vt 0.333333 1.000000
vt 0.166667 0.500000
vt 0.166667 1.000000
s 0
f 1/1/1 2/3/1 4/6/1 3/5/1
f 5/7/2 6/8/2 8/10/2 7/9/2
f 7/9/3 8/10/3 10/12/3 9/11/3
f 9/11/4 10/12/4 2/4/4 1/2/4
f 11/13/5 13/17/5 14/18/5 12/15/5
f 15/19/6 17/21/6 18/22/6 16/20/6
f 17/21/7 19/23/7 20/24/7 18/22/7
f 19/23/8 11/14/8 12/16/8 20/24/8
f 1/1/9 3/5/9 13/17/9 11/13/9
f 4/6/10 2/3/10 12/15/10 14/18/10
f 3/5/11 4/6/11 14/18/11 13/17/11
f 6/8/11 5/7/11 15/19/11 16/20/11
f 5/7/9 7/9/9 17/21/9 15/19/9
f 8/10/10 6/8/10 16/20/10 18/22/10
f 7/9/9 9/11/9 19/23/9 17/21/9
f 10/12/10 8/10/10 18/22/10 20/24/10
f 9/11/9 1/2/9 11/14/9 19/23/9
f 2/4/10 10/12/10 20/24/10 12/16/10
